<svg xmlns="http://www.w3.org/2000/svg" xmlns:xlink="http://www.w3.org/1999/xlink" xmlns:svgjs="http://svgjs.dev/svgjs" version="1.1" viewBox="124.5 219 162 162">
  <g>
    <rect width="333.3333333333333" height="333.3333333333333" rx="13.333333333333334" ry="13.333333333333334" y="281.86811404749983" fill="#f56342" transform="matrix(0.481424913223626,0,0,0.48142491322362607,0,84.06418240033774)" x="259.6459655761719"/>
    <path d="M456.2084699226734 448.355122725894Q455.3865908660162 444.7447254412929 453.88959686996213 438.63933816326835Q452.42195569736003 432.50459806179174 450.71949193714164 425.10768655187735Q449.0463810003753 417.71077504196296 447.22650594634877 409.6681014161037Q445.4359837157742 401.6547806136964 443.850931249364 394.5513973383024Q442.2658787829538 387.4773668863605 440.88629608070784 381.8709776070207Q439.53606620191397 376.2939411511328 438.89030408596903 373.53477574664095L438.89030408596903 373.53477574664095Q431.90433210438323 374.1805378625859 427.58946705693313 374.26859633294197Q423.24524918603106 374.38600762675014 420.51543660499124 374.38600762675014Q417.7562712004994 374.38600762675014 416.053807440281 374.38600762675014Q414.3806965035146 374.38600762675014 412.8837025074605 374.5914773909144L412.8837025074605 374.5914773909144Q407.83501687370944 391.49870369929016 403.60821029661554 408.6113997718302Q399.3814037195216 425.72409584437025 395.77100643492054 441.5746205084725Q392.18996197377146 457.42514517257473 389.5482078630878 471.4851476061025Q386.90645375240405 485.5451500396302 384.9985202280214 496.31763624652933Q383.0905867036387 507.0901224534285 382.0338850593652 513.87062467085Q380.97718341509176 520.6217740648194 380.5662438867631 522.1187680608737L380.5662438867631 522.1187680608737Q380.77171365092744 522.3242378250379 380.97718341509176 522.3242378250379L380.97718341509176 522.3242378250379Q395.3600669065919 522.1187680608737 402.1112163005614 522.5297075892022Q408.8917185179829 522.9406471175307 410.56482945474926 522.5297075892022L410.56482945474926 522.5297075892022Q410.7702992189136 522.5297075892022 410.8877105127217 522.4122962953941Q411.0051218065299 522.3242378250379 411.2105915706942 522.3242378250379L411.2105915706942 522.3242378250379Q413.11852509507685 518.7138405404369 414.17522673935036 514.0760944350143Q415.2319283836238 509.43834832959175 416.17121873408917 504.4483683427448Q417.11050908455445 499.4877411793498 418.0791522584718 494.9380535442834Q419.0184426089371 490.4177187326691 420.51543660499124 487.0127912122323L420.51543660499124 487.0127912122323Q422.8343096577025 487.0127912122323 424.21389235994843 486.92473274187614Q425.56412223874236 486.80732144806797 426.738235176824 486.80732144806797Q427.9123481149056 486.80732144806797 429.37998928750767 486.80732144806797Q430.84763046010977 486.80732144806797 433.6067958646016 487.24761379984864L433.6067958646016 487.24761379984864Q435.07443703720367 490.4177187326691 436.36596126909353 494.8499950739273Q437.62813267753126 499.2822714151855 438.77289279216086 504.1548401082244Q439.9470057302425 508.99805597781113 441.1211186683242 513.6651549066858Q442.2658787829538 518.3029010121081 443.52805019139157 521.6784757090929L443.52805019139157 521.6784757090929L443.7628727790079 521.6784757090929Q450.5140221729774 523.1754697051471 458.11640344705603 523.4689979396675Q465.71878472113474 523.79187899764 472.0589945867756 522.5297075892022L472.0589945867756 522.5297075892022L472.0589945867756 522.3242378250379L456.2084699226734 448.355122725894ZM434.66349750887514 462.0922441014493Q430.64216069594545 462.0922441014493 426.6208238830158 462.1803025718054Q422.6288398935382 462.29771386561356 419.0184426089371 462.0922441014493L419.0184426089371 462.0922441014493Q420.51543660499124 451.31975789455015 421.66019671962084 442.0149128602531Q422.8343096577025 432.71006782595606 423.7736000081678 426.57532772447945Q424.7422431820852 420.4405876230028 425.8870032967148 418.444595628264Q427.06111623479643 416.4486036335252 428.20587634942603 420.0296480946742Q429.37998928750767 423.6106925558233 430.96504175391794 433.7667694702295Q432.5500942203281 443.92284638463576 434.66349750887514 462.0922441014493L434.66349750887514 462.0922441014493Z " fill="#ffffff" transform="matrix(0.481424913223626,0,0,0.48142491322362607,0,84.06418240033774)"/>
  </g>
</svg>